<?xml version="1.0" encoding="UTF-8"?>
<!-- Generated by Pixelmator Pro 3.3.2 -->
<svg width="64" height="64" viewBox="0 0 64 64" xmlns="http://www.w3.org/2000/svg" xmlns:xlink="http://www.w3.org/1999/xlink">
    <g id="Group">
        <path id="Path" fill="none" stroke="#000000" stroke-width="2" stroke-linecap="square" d="M 10 5 L 54 5 C 56.761425 5 59 7.238575 59 10 L 59 54 C 59 56.761425 56.761425 59 54 59 L 10 59 C 7.238576 59 5 56.761425 5 54 L 5 10 C 5 7.238575 7.238576 5 10 5 Z"/>
        <g id="wifi">
            <path id="path1" fill="none" stroke="#000000" stroke-width="1.550985" stroke-linecap="square" d="M 34.806309 43.581692 C 34.806309 45.469574 33.275879 47 31.388 47 C 29.500122 47 27.969692 45.469574 27.969692 43.581692 C 27.969692 41.693813 29.500122 40.163383 31.388 40.163383 C 33.275879 40.163383 34.806309 41.693813 34.806309 43.581692 Z"/>
            <path id="path2" fill="none" stroke="#000000" stroke-width="1.550985" stroke-linecap="square" d="M 42.023037 33.630318 C 39.301384 30.907974 35.541245 29.2248 31.388 29.2248 C 27.234756 29.2248 23.474619 30.907974 20.752962 33.630318"/>
            <path id="path3" fill="none" stroke="#000000" stroke-width="1.550985" stroke-linecap="square" d="M 50 25.995186 C 45.236248 21.232113 38.656689 18.286217 31.388 18.286217 C 24.119995 18.286217 17.539753 21.232113 12.776 25.995186"/>
        </g>
    </g>
</svg>
