<?xml version="1.0" encoding="UTF-8"?>
<!-- Generated by Pixelmator Pro 2.4.3 -->
<svg width="300" height="300" viewBox="0 0 300 300" xmlns="http://www.w3.org/2000/svg" xmlns:xlink="http://www.w3.org/1999/xlink">
    <g id="Group">
        <path id="Path" fill="none" stroke="#ff8300" stroke-width="11.375" stroke-linecap="round" stroke-linejoin="round" d="M 150 253.125 L 150 215.625"/>
        <path id="path1" fill="none" stroke="#ff8300" stroke-width="18.75" stroke-linecap="round" stroke-linejoin="round" d="M 234.375 154.6875 L 234.375 173.4375 L 258.618744 197.681244"/>
        <path id="path2" fill="none" stroke="#ff8300" stroke-width="18.75" stroke-linecap="round" stroke-linejoin="round" d="M 290.625 210.9375 C 290.625 221.292847 282.230347 229.6875 271.875 229.6875 C 261.519653 229.6875 253.125 221.292847 253.125 210.9375 C 253.125 200.582153 261.519653 192.1875 271.875 192.1875 C 282.230347 192.1875 290.625 200.582153 290.625 210.9375 Z"/>
        <path id="path3" fill="none" stroke="#ff8300" stroke-width="18.75" stroke-linecap="round" stroke-linejoin="round" d="M 65.625 154.6875 L 65.625 173.4375 L 41.381248 197.681244"/>
        <path id="path4" fill="none" stroke="#ff8300" stroke-width="18.75" stroke-linecap="round" stroke-linejoin="round" d="M 46.875 210.9375 C 46.875 221.292847 38.480339 229.6875 28.125 229.6875 C 17.769661 229.6875 9.375 221.292847 9.375 210.9375 C 9.375 200.582153 17.769661 192.1875 28.125 192.1875 C 38.480339 192.1875 46.875 200.582153 46.875 210.9375 Z"/>
        <path id="path5" fill="none" stroke="#ff8300" stroke-width="18.75" stroke-linecap="round" stroke-linejoin="round" d="M 79.6875 243.75 L 79.6875 225 L 98.4375 206.25 L 98.4375 196.875"/>
        <path id="path6" fill="none" stroke="#ff8300" stroke-width="18.75" stroke-linecap="round" stroke-linejoin="round" d="M 98.4375 262.5 C 98.4375 272.855347 90.042839 281.25 79.6875 281.25 C 69.332161 281.25 60.9375 272.855347 60.9375 262.5 C 60.9375 252.144653 69.332161 243.75 79.6875 243.75 C 90.042839 243.75 98.4375 252.144653 98.4375 262.5 Z"/>
        <path id="path7" fill="none" stroke="#ff8300" stroke-width="18.75" stroke-linecap="round" stroke-linejoin="round" d="M 220.3125 243.75 L 220.3125 225 L 201.5625 206.25 L 201.5625 196.875"/>
        <path id="path8" fill="none" stroke="#ff8300" stroke-width="18.75" stroke-linecap="round" stroke-linejoin="round" d="M 239.0625 262.5 C 239.0625 272.855347 230.667847 281.25 220.3125 281.25 C 209.957153 281.25 201.5625 272.855347 201.5625 262.5 C 201.5625 252.144653 209.957153 243.75 220.3125 243.75 C 230.667847 243.75 239.0625 252.144653 239.0625 262.5 Z"/>
        <path id="path9" fill="none" stroke="#ff8300" stroke-width="18.75" stroke-linecap="round" stroke-linejoin="round" d="M 168.75 271.875 C 168.75 282.230347 160.355347 290.625 150 290.625 C 139.644669 290.625 131.25 282.230347 131.25 271.875 C 131.25 261.519653 139.644669 253.125 150 253.125 C 160.355347 253.125 168.75 261.519653 168.75 271.875 Z"/>
        <path id="path10" fill="none" stroke="#ff8300" stroke-width="18.75" stroke-linecap="round" stroke-linejoin="round" d="M 187.5 150 C 187.5 170.710678 170.710678 187.5 150 187.5 C 129.289322 187.5 112.5 170.710678 112.5 150 C 112.5 129.289322 129.289322 112.5 150 112.5 C 170.710678 112.5 187.5 129.289322 187.5 150 Z"/>
        <path id="path11" fill="none" stroke="#ff8300" stroke-width="18.75" stroke-linecap="round" stroke-linejoin="round" d="M 290.625 159.375 L 290.625 131.25 L 250.256256 126.206253 C 247.722748 115.513474 243.484116 105.29837 237.703125 95.953125 L 262.696869 63.825012 L 236.174988 37.303131 L 204.046875 62.296875 C 194.701599 56.515884 184.486526 52.277252 173.793747 49.743744 L 168.75 9.375 L 131.25 9.375 L 126.206245 49.743744 C 115.513489 52.277252 105.298386 56.515884 95.953125 62.296875 L 63.825001 37.303131 L 37.303127 63.825012 L 62.296875 95.953125 C 56.515877 105.29837 52.277264 115.513474 49.743752 126.206253 L 9.375 131.25 L 9.375 159.375"/>
    </g>
</svg>
