<?xml version="1.0" encoding="UTF-8"?>
<!-- Generated by Pixelmator Pro 3.3.4 -->
<svg width="64" height="64" viewBox="0 0 64 64" xmlns="http://www.w3.org/2000/svg">
    <g id="Group">
        <path id="Ellipse" fill="none" stroke="#000000" stroke-width="2" stroke-linecap="square" d="M 59 32 C 59 17.08831 46.91169 5 32 5 C 17.088312 5 5 17.08831 5 32 C 5 46.91169 17.088312 59 32 59 C 46.91169 59 59 46.91169 59 32 Z"/>
        <g id="wifi">
            <path id="path1" fill="none" stroke="#000000" stroke-width="1.550985" stroke-linecap="square" d="M 34.806309 44.581692 C 34.806309 46.469574 33.275879 48 31.388 48 C 29.500122 48 27.969692 46.469574 27.969692 44.581692 C 27.969692 42.693813 29.500122 41.163383 31.388 41.163383 C 33.275879 41.163383 34.806309 42.693813 34.806309 44.581692 Z"/>
            <path id="path2" fill="none" stroke="#000000" stroke-width="1.550985" stroke-linecap="square" d="M 42.023037 34.630318 C 39.301384 31.907974 35.541245 30.2248 31.388 30.2248 C 27.234756 30.2248 23.474619 31.907974 20.752962 34.630318"/>
            <path id="path3" fill="none" stroke="#000000" stroke-width="1.550985" stroke-linecap="square" d="M 50 26.995186 C 45.236248 22.232113 38.656689 19.286217 31.388 19.286217 C 24.119995 19.286217 17.539753 22.232113 12.776 26.995186"/>
        </g>
    </g>
</svg>
